<svg width="78" height="78" viewBox="0 0 78 78" fill="none" xmlns="http://www.w3.org/2000/svg">
<path d="M56.55 35.0998C56.55 48.7498 39 60.4498 39 60.4498C39 60.4498 21.45 48.7498 21.45 35.0998C21.45 30.4453 23.299 25.9813 26.5902 22.6901C29.8815 19.3988 34.3454 17.5498 39 17.5498C43.6545 17.5498 48.1184 19.3988 51.4097 22.6901C54.7009 25.9813 56.55 30.4453 56.55 35.0998Z" stroke="black" stroke-width="2" stroke-linecap="round" stroke-linejoin="round"/>
<path d="M38.9999 40.95C42.2308 40.95 44.8499 38.3309 44.8499 35.1C44.8499 31.8691 42.2308 29.25 38.9999 29.25C35.769 29.25 33.1499 31.8691 33.1499 35.1C33.1499 38.3309 35.769 40.95 38.9999 40.95Z" stroke="black" stroke-width="2" stroke-linecap="round" stroke-linejoin="round"/>
</svg>
